<svg xmlns="http://www.w3.org/2000/svg" style="display: none;">
  <symbol id="mdi-play" viewBox="0 0 24 24">
    <path d="M8,5.14V19.14L19,12.14L8,5.14Z" />
  </symbol>
  <symbol id="mdi-stop" viewBox="0 0 24 24">
    <path d="M18,18H6V6H18V18Z" />
  </symbol>
  <symbol id="mdi-grid" viewBox="0 0 24 24">
    <path d="M10,4V8H14V4H10M16,4V8H20V4H16M16,10V14H20V10H16M16,16V20H20V16H16M14,20V16H10V20H14M8,20V16H4V20H8M8,14V10H4V14H8M8,8V4H4V8H8M10,14H14V10H10V14M4,2H20A2,2 0 0,1 22,4V20A2,2 0 0,1 20,22H4C2.92,22 2,21.1 2,20V4A2,2 0 0,1 4,2Z" />
  </symbol>
  <symbol id="mdi-cog" viewBox="0 0 24 24">
    <path d="M12,15.5A3.5,3.5 0 0,1 8.5,12A3.5,3.5 0 0,1 12,8.5A3.5,3.5 0 0,1 15.5,12A3.5,3.5 0 0,1 12,15.5M19.43,12.97C19.47,12.65 19.5,12.33 19.5,12C19.5,11.67 19.47,11.34 19.43,11L21.54,9.37C21.73,9.22 21.78,8.95 21.66,8.73L19.66,5.27C19.54,5.05 19.27,4.96 19.05,5.05L16.56,6.05C16.04,5.66 15.5,5.32 14.87,5.07L14.5,2.42C14.46,2.18 14.25,2 14,2H10C9.75,2 9.54,2.18 9.5,2.42L9.13,5.07C8.5,5.32 7.96,5.66 7.44,6.05L4.95,5.05C4.73,4.96 4.46,5.05 4.34,5.27L2.34,8.73C2.21,8.95 2.27,9.22 2.46,9.37L4.57,11C4.53,11.34 4.5,11.67 4.5,12C4.5,12.33 4.53,12.65 4.57,12.97L2.46,14.63C2.27,14.78 2.21,15.05 2.34,15.27L4.34,18.73C4.46,18.95 4.73,19.03 4.95,18.95L7.44,17.94C7.96,18.34 8.5,18.68 9.13,18.93L9.5,21.58C9.54,21.82 9.75,22 10,22H14C14.25,22 14.46,21.82 14.5,21.58L14.87,18.93C15.5,18.67 16.04,18.34 16.56,17.94L19.05,18.95C19.27,19.03 19.54,18.95 19.66,18.73L21.66,15.27C21.78,15.05 21.73,14.78 21.54,14.63L19.43,12.97Z" />
  </symbol>
  <symbol id="mdi-menu-down" viewBox="0 0 24 24">
    <path d="M7,10L12,15L17,10H7Z" />
  </symbol>
  <symbol id="mdi-undo" viewBox="0 0 24 24">
    <path d="M12.5,8C9.85,8 7.45,9 5.6,10.6L2,7V16H11L7.38,12.38C8.77,11.22 10.54,10.5 12.5,10.5C16.04,10.5 19.05,12.81 20.1,16L22.47,15.22C21.08,11.03 17.15,8 12.5,8Z" />
  </symbol>
  <symbol id="mdi-redo" viewBox="0 0 24 24">
    <path d="M18.4,10.6C16.55,9 14.15,8 11.5,8C6.85,8 2.92,11.03 1.54,15.22L3.9,16C4.95,12.81 7.95,10.5 11.5,10.5C13.45,10.5 15.23,11.22 16.62,12.38L13,16H22V7L18.4,10.6Z" />
  </symbol>
  <symbol id="mdi-numeric-1" viewBox="0 0 24 24">
    <path d="M10,7V9H12V17H14V7H10Z" />
  </symbol>
  <svg id="mdi-numeric-1-circle-outline" viewBox="0 0 24 24">
    <path d="M10,7H14V17H12V9H10V7M12,2A10,10 0 0,1 22,12A10,10 0 0,1 12,22A10,10 0 0,1 2,12A10,10 0 0,1 12,2M12,4A8,8 0 0,0 4,12A8,8 0 0,0 12,20A8,8 0 0,0 20,12A8,8 0 0,0 12,4Z" />
  </svg>
  <svg id="mdi-alpha-n-circle-outline" viewBox="0 0 24 24">
    <path d="M9,7H11L13,12V7H15V17H13L11,12V17H9V7M12,2A10,10 0 0,1 22,12A10,10 0 0,1 12,22A10,10 0 0,1 2,12A10,10 0 0,1 12,2M12,4A8,8 0 0,0 4,12A8,8 0 0,0 12,20A8,8 0 0,0 20,12A8,8 0 0,0 12,4Z" />
  </svg>
  <symbol id="mdi-alpha-n" viewBox="0 0 24 24">
    <path d="M9,7V17H11V12L13,17H15V7H13V12L11,7H9Z" />
  </symbol>
  <symbol id="mdi-hand-back-right" viewBox="0 0 24 24">
    <path d="M13 24C9.74 24 6.81 22 5.6 19L2.57 11.37C2.26 10.58 3 9.79 3.81 10.05L4.6 10.31C5.16 10.5 5.62 10.92 5.84 11.47L7.25 15H8V3.25C8 2.56 8.56 2 9.25 2S10.5 2.56 10.5 3.25V12H11.5V1.25C11.5 .56 12.06 0 12.75 0S14 .56 14 1.25V12H15V2.75C15 2.06 15.56 1.5 16.25 1.5C16.94 1.5 17.5 2.06 17.5 2.75V12H18.5V5.75C18.5 5.06 19.06 4.5 19.75 4.5S21 5.06 21 5.75V16C21 20.42 17.42 24 13 24Z" />
  </symbol>
  <symbol id="mdi-pencil" viewBox="0 0 24 24">
    <path d="M20.71,7.04C21.1,6.65 21.1,6 20.71,5.63L18.37,3.29C18,2.9 17.35,2.9 16.96,3.29L15.12,5.12L18.87,8.87M3,17.25V21H6.75L17.81,9.93L14.06,6.18L3,17.25Z" />
  </symbol>
  <symbol id="mdi-menu" viewBox="0 0 24 24">
    <path d="M3,6H21V8H3V6M3,11H21V13H3V11M3,16H21V18H3V16Z" />
  </symbol>
  <symbol id="mdi-dots-vertical" viewBox="0 0 24 24">
    <path d="M12,16A2,2 0 0,1 14,18A2,2 0 0,1 12,20A2,2 0 0,1 10,18A2,2 0 0,1 12,16M12,10A2,2 0 0,1 14,12A2,2 0 0,1 12,14A2,2 0 0,1 10,12A2,2 0 0,1 12,10M12,4A2,2 0 0,1 14,6A2,2 0 0,1 12,8A2,2 0 0,1 10,6A2,2 0 0,1 12,4Z" />
  </symbol>
  <symbol id="mdi-dna" viewBox="0 0 24 24">
    <path d="M4,2H6V4C6,5.44 6.68,6.61 7.88,7.78C8.74,8.61 9.89,9.41 11.09,10.2L9.26,11.39C8.27,10.72 7.31,10 6.5,9.21C5.07,7.82 4,6.1 4,4V2M18,2H20V4C20,6.1 18.93,7.82 17.5,9.21C16.09,10.59 14.29,11.73 12.54,12.84C10.79,13.96 9.09,15.05 7.88,16.22C6.68,17.39 6,18.56 6,20V22H4V20C4,17.9 5.07,16.18 6.5,14.79C7.91,13.41 9.71,12.27 11.46,11.16C13.21,10.04 14.91,8.95 16.12,7.78C17.32,6.61 18,5.44 18,4V2M14.74,12.61C15.73,13.28 16.69,14 17.5,14.79C18.93,16.18 20,17.9 20,20V22H18V20C18,18.56 17.32,17.39 16.12,16.22C15.26,15.39 14.11,14.59 12.91,13.8L14.74,12.61M7,3H17V4L16.94,4.5H7.06L7,4V3M7.68,6H16.32C16.08,6.34 15.8,6.69 15.42,7.06L14.91,7.5H9.07L8.58,7.06C8.2,6.69 7.92,6.34 7.68,6M9.09,16.5H14.93L15.42,16.94C15.8,17.31 16.08,17.66 16.32,18H7.68C7.92,17.66 8.2,17.31 8.58,16.94L9.09,16.5M7.06,19.5H16.94L17,20V21H7V20L7.06,19.5Z" />
  </symbol>
  <symbol id="mdi-chart-bar" viewBox="0 0 24 24">
    <path d="M22,21H2V3H4V19H6V10H10V19H12V6H16V19H18V14H22V21Z" />
  </symbol>
  <symbol id="mdi-broom" viewBox="0 0 24 24">
    <path d="M19.36,2.72L20.78,4.14L15.06,9.85C16.13,11.39 16.28,13.24 15.38,14.44L9.06,8.12C10.26,7.22 12.11,7.37 13.65,8.44L19.36,2.72M5.93,17.57C3.92,15.56 2.69,13.16 2.35,10.92L7.23,8.83L14.67,16.27L12.58,21.15C10.34,20.81 7.94,19.58 5.93,17.57Z" />
  </symbol>
  <symbol id="mdi-dice-5-outline" viewBox="0 0 24 24">
    <path d="M19 5V19H5V5H19M19 3H5C3.9 3 3 3.9 3 5V19C3 20.1 3.9 21 5 21H19C20.1 21 21 20.1 21 19V5C21 3.9 20.1 3 19 3M7.5 6C6.7 6 6 6.7 6 7.5S6.7 9 7.5 9 9 8.3 9 7.5 8.3 6 7.5 6M16.5 15C15.7 15 15 15.7 15 16.5C15 17.3 15.7 18 16.5 18C17.3 18 18 17.3 18 16.5C18 15.7 17.3 15 16.5 15M16.5 6C15.7 6 15 6.7 15 7.5S15.7 9 16.5 9C17.3 9 18 8.3 18 7.5S17.3 6 16.5 6M12 10.5C11.2 10.5 10.5 11.2 10.5 12S11.2 13.5 12 13.5 13.5 12.8 13.5 12 12.8 10.5 12 10.5M7.5 15C6.7 15 6 15.7 6 16.5C6 17.3 6.7 18 7.5 18S9 17.3 9 16.5C9 15.7 8.3 15 7.5 15Z" />
  </symbol>
  <symbol id="mdi-sprout" viewBox="0 0 24 24">
    <path d="M2,22V20C2,20 7,18 12,18C17,18 22,20 22,20V22H2M11.3,9.1C10.1,5.2 4,6.1 4,6.1C4,6.1 4.2,13.9 9.9,12.7C9.5,9.8 8,9 8,9C10.8,9 11,12.4 11,12.4V17C11.3,17 11.7,17 12,17C12.3,17 12.7,17 13,17V12.8C13,12.8 13,8.9 16,7.9C16,7.9 14,10.9 14,12.9C21,13.6 21,4 21,4C21,4 12.1,3 11.3,9.1Z" />
  </symbol>
  <symbol id="mdi-auto-fix" viewBox="0 0 24 24">
    <path d="M7.5,5.6L5,7L6.4,4.5L5,2L7.5,3.4L10,2L8.6,4.5L10,7L7.5,5.6M19.5,15.4L22,14L20.6,16.5L22,19L19.5,17.6L17,19L18.4,16.5L17,14L19.5,15.4M22,2L20.6,4.5L22,7L19.5,5.6L17,7L18.4,4.5L17,2L19.5,3.4L22,2M13.34,12.78L15.78,10.34L13.66,8.22L11.22,10.66L13.34,12.78M14.37,7.29L16.71,9.63C17.1,10 17.1,10.65 16.71,11.04L5.04,22.71C4.65,23.1 4,23.1 3.63,22.71L1.29,20.37C0.9,20 0.9,19.35 1.29,18.96L12.96,7.29C13.35,6.9 14,6.9 14.37,7.29Z" />
  </symbol>
  <symbol id="mdi-minus" viewBox="0 0 24 24">
    <path d="M19,13H5V11H19V13Z" />
  </symbol>
  <symbol id="mdi-square-outline" viewBox="0 0 24 24">
    <path d="M3,3H21V21H3V3M5,5V19H19V5H5Z" />
  </symbol>
  <symbol id="mdi-square" viewBox="0 0 24 24">
    <path d="M3,3V21H21V3" />
  </symbol>
  <symbol id="mdi-circle-outline" viewBox="0 0 24 24">
    <path d="M12,20A8,8 0 0,1 4,12A8,8 0 0,1 12,4A8,8 0 0,1 20,12A8,8 0 0,1 12,20M12,2A10,10 0 0,0 2,12A10,10 0 0,0 12,22A10,10 0 0,0 22,12A10,10 0 0,0 12,2Z" />
  </symbol>
  <symbol id="mdi-circle" viewBox="0 0 24 24">
    <path d="M12,2A10,10 0 0,0 2,12A10,10 0 0,0 12,22A10,10 0 0,0 22,12A10,10 0 0,0 12,2Z" />
  </symbol>
  <symbol id="mdi-select" viewBox="0 0 24 24">
    <path d="M4,3H5V5H3V4A1,1 0 0,1 4,3M20,3A1,1 0 0,1 21,4V5H19V3H20M15,5V3H17V5H15M11,5V3H13V5H11M7,5V3H9V5H7M21,20A1,1 0 0,1 20,21H19V19H21V20M15,21V19H17V21H15M11,21V19H13V21H11M7,21V19H9V21H7M4,21A1,1 0 0,1 3,20V19H5V21H4M3,15H5V17H3V15M21,15V17H19V15H21M3,11H5V13H3V11M21,11V13H19V11H21M3,7H5V9H3V7M21,7V9H19V7H21Z" />
  </symbol>
  <symbol id="mdi-selection-remove" viewBox="0 0 24 24">
    <path d="M20 20V17H22V20C22 21.11 21.1 22 20 22H17V20H20M2 20V17H4V20H7V22H4C2.9 22 2 21.1 2 20M10 20H14V22H10V20M14.59 8L12 10.59L9.41 8L8 9.41L10.59 12L8 14.59L9.41 16L12 13.41L14.59 16L16 14.59L13.41 12L16 9.41L14.59 8M20 10H22V14H20V10M2 10H4V14H2V10M2 4C2 2.89 2.9 2 4 2H7V4H4V7H2V4M22 4V7H20V4H17V2H20C21.1 2 22 2.9 22 4M10 2H14V4H10V2Z" />
  </symbol>
  <symbol id="mdi-content-copy" viewBox="0 0 24 24">
    <path d="M19,21H8V7H19M19,5H8A2,2 0 0,0 6,7V21A2,2 0 0,0 8,23H19A2,2 0 0,0 21,21V7A2,2 0 0,0 19,5M16,1H4A2,2 0 0,0 2,3V17H4V3H16V1Z" />
  </symbol>
  <symbol id="mdi-content-paste" viewBox="0 0 24 24">
    <path d="M19,20H5V4H7V7H17V4H19M12,2A1,1 0 0,1 13,3A1,1 0 0,1 12,4A1,1 0 0,1 11,3A1,1 0 0,1 12,2M19,2H14.82C14.4,0.84 13.3,0 12,0C10.7,0 9.6,0.84 9.18,2H5A2,2 0 0,0 3,4V20A2,2 0 0,0 5,22H19A2,2 0 0,0 21,20V4A2,2 0 0,0 19,2Z" />
  </symbol>
  <symbol id="mdi-flip-horizontal" viewBox="0 0 24 24">
    <path d="M15 21H17V19H15M19 9H21V7H19M3 5V19C3 20.1 3.9 21 5 21H9V19H5V5H9V3H5C3.9 3 3 3.9 3 5M19 3V5H21C21 3.9 20.1 3 19 3M11 23H13V1H11M19 17H21V15H19M15 5H17V3H15M19 13H21V11H19M19 21C20.1 21 21 20.1 21 19H19Z" />
  </symbol>
  <symbol id="mdi-flip-vertical" viewBox="0 0 24 24">
    <path d="M3 15V17H5V15M15 19V21H17V19M19 3H5C3.9 3 3 3.9 3 5V9H5V5H19V9H21V5C21 3.9 20.1 3 19 3M21 19H19V21C20.1 21 21 20.1 21 19M1 11V13H23V11M7 19V21H9V19M19 15V17H21V15M11 19V21H13V19M3 19C3 20.1 3.9 21 5 21V19Z" />
  </symbol>
  <symbol id="mdi-rotate-left" viewBox="0 0 24 24">
    <path d="M13,4.07V1L8.45,5.55L13,10V6.09C15.84,6.57 18,9.03 18,12C18,14.97 15.84,17.43 13,17.91V19.93C16.95,19.44 20,16.08 20,12C20,7.92 16.95,4.56 13,4.07M7.1,18.32C8.26,19.22 9.61,19.76 11,19.93V17.9C10.13,17.75 9.29,17.41 8.54,16.87L7.1,18.32M6.09,13H4.07C4.24,14.39 4.79,15.73 5.69,16.89L7.1,15.47C6.58,14.72 6.23,13.88 6.09,13M7.11,8.53L5.7,7.11C4.8,8.27 4.24,9.61 4.07,11H6.09C6.23,10.13 6.58,9.28 7.11,8.53Z" />
  </symbol>
  <symbol id="mdi-rotate-right" viewBox="0 0 24 24">
    <path d="M16.89,15.5L18.31,16.89C19.21,15.73 19.76,14.39 19.93,13H17.91C17.77,13.87 17.43,14.72 16.89,15.5M13,17.9V19.92C14.39,19.75 15.74,19.21 16.9,18.31L15.46,16.87C14.71,17.41 13.87,17.76 13,17.9M19.93,11C19.76,9.61 19.21,8.27 18.31,7.11L16.89,8.53C17.43,9.28 17.77,10.13 17.91,11M15.55,5.55L11,1V4.07C7.06,4.56 4,7.92 4,12C4,16.08 7.05,19.44 11,19.93V17.91C8.16,17.43 6,14.97 6,12C6,9.03 8.16,6.57 11,6.09V10L15.55,5.55Z" />
  </symbol>
  <symbol id="mdi-select-inverse" viewBox="0 0 24 24">
    <path d="M5,3H7V5H9V3H11V5H13V3H15V5H17V3H19V5H21V7H19V9H21V11H19V13H21V15H19V17H21V19H19V21H17V19H15V21H13V19H11V21H9V19H7V21H5V19H3V17H5V15H3V13H5V11H3V9H5V7H3V5H5V3Z" />
  </symbol>
  <symbol id="mdi-help-circle-outline" viewBox="0 0 24 24">
      <path d="M11,18H13V16H11V18M12,2A10,10 0 0,0 2,12A10,10 0 0,0 12,22A10,10 0 0,0 22,12A10,10 0 0,0 12,2M12,20C7.59,20 4,16.41 4,12C4,7.59 7.59,4 12,4C16.41,4 20,7.59 20,12C20,16.41 16.41,20 12,20M12,6A4,4 0 0,0 8,10H10A2,2 0 0,1 12,8A2,2 0 0,1 14,10C14,12 11,11.75 11,15H13C13,12.75 16,12.5 16,10A4,4 0 0,0 12,6Z" />
  </symbol>
  <symbol id="mdi-content-save" viewBox="0 0 24 24">
    <path d="M15,9H5V5H15M12,19A3,3 0 0,1 9,16A3,3 0 0,1 12,13A3,3 0 0,1 15,16A3,3 0 0,1 12,19M17,3H5C3.89,3 3,3.9 3,5V19A2,2 0 0,0 5,21H19A2,2 0 0,0 21,19V7L17,3Z" />
  </symbol>
  <symbol id="mdi-folder-open" viewBox="0 0 24 24">
    <path d="M19,20H4C2.89,20 2,19.1 2,18V6C2,4.89 2.89,4 4,4H10L12,6H19A2,2 0 0,1 21,8H21L4,8V18L6.14,10H23.21L20.93,18.5C20.7,19.37 19.92,20 19,20Z" />
  </symbol>
  <symbol id="mdi-information-outline" viewBox="0 0 24 24">
    <path d="M11,9H13V7H11M12,20C7.59,20 4,16.41 4,12C4,7.59 7.59,4 12,4C16.41,4 20,7.59 20,12C20,16.41 16.41,20 12,20M12,2A10,10 0 0,0 2,12A10,10 0 0,0 12,22A10,10 0 0,0 22,12A10,10 0 0,0 12,2M11,17H13V11H11V17Z" />
  </symbol>

</svg>

